<svg width="40" height="40" viewBox="0 0 40 40" fill="none" xmlns="http://www.w3.org/2000/svg">
<path d="M39.987 23.4226C39.9886 23.4226 39.9905 23.4229 39.992 23.4236C39.9939 23.4243 39.9954 23.4254 39.9966 23.4267C39.9977 23.428 39.9989 23.4295 39.9992 23.4312C40 23.4328 40 23.4346 40 23.4363C38.3456 32.8446 30.0221 40 20.0065 40C9.99074 40 1.64746 32.8377 0 23.4226H9.19C9.73945 25.1062 10.6861 26.6374 11.9524 27.8907C13.2186 29.144 14.7684 30.0837 16.4745 30.6326C18.1807 31.1815 19.9946 31.324 21.7674 31.0484C23.5402 30.7728 25.2215 30.087 26.6733 29.0472C24.7919 17.6984 9.54887 15.6249 9.53889 15.6475H0.184938C2.1993 6.69836 10.3066 0 19.9995 0C29.6923 0 37.7937 6.69836 39.813 15.6475H30.459C29.5902 13.6216 28.1347 11.8929 26.2744 10.6776C24.4141 9.46221 22.2315 8.8141 19.9995 8.81425C15.328 8.81425 11.2803 11.6758 9.53889 15.6475C11.2033 15.6613 26.5823 15.9125 30.8079 23.4226H39.987Z" fill="#FAFAFA"/>
</svg>
